# This file uses centimeters as units for non-parametric coordinates.

v 0.892399 -0.047753 -0.239117
v 0.800103 -0.047753 -0.461939
v 0.653281 -0.047753 -0.653281
v 0.461940 -0.047753 -0.800103
v 0.239118 -0.047753 -0.892399
v 0.000000 -0.047753 -0.923879
v -0.239117 -0.047753 -0.892399
v -0.461939 -0.047753 -0.800103
v -0.653281 -0.047753 -0.653281
v -0.800103 -0.047753 -0.461940
v -0.892399 -0.047753 -0.239118
v -0.923879 -0.047753 -0.000000
v -0.892399 -0.047753 0.239118
v -0.800103 -0.047753 0.461940
v -0.653281 -0.047753 0.653281
v -0.461940 -0.047753 0.800103
v -0.239118 -0.047753 0.892399
v -0.000000 -0.047753 0.923879
v 0.239118 -0.047753 0.892399
v 0.461940 -0.047753 0.800103
v 0.653281 -0.047753 0.653281
v 0.800103 -0.047753 0.461940
v 0.892399 -0.047753 0.239118
v 0.923880 -0.047753 0.000000
v 0.965925 0.116619 -0.258819
v 0.866025 0.116619 -0.500000
v 0.707106 0.116619 -0.707106
v 0.500000 0.116619 -0.866025
v 0.258819 0.116619 -0.965925
v 0.000000 0.116619 -0.999999
v -0.258819 0.116619 -0.965925
v -0.500000 0.116619 -0.866025
v -0.707106 0.116619 -0.707107
v -0.866025 0.116619 -0.500000
v -0.965926 0.116619 -0.258819
v -1.000000 0.116619 -0.000000
v -0.965926 0.116619 0.258819
v -0.866025 0.116619 0.500000
v -0.707107 0.116619 0.707107
v -0.500000 0.116619 0.866025
v -0.258819 0.116619 0.965926
v -0.000000 0.116619 1.000000
v 0.258819 0.116619 0.965926
v 0.500000 0.116619 0.866025
v 0.707107 0.116619 0.707107
v 0.866025 0.116619 0.500000
v 0.965926 0.116619 0.258819
v 1.000000 0.116619 0.000000
v 0.892399 0.280991 -0.239117
v 0.800103 0.280991 -0.461939
v 0.653281 0.280991 -0.653281
v 0.461940 0.280991 -0.800103
v 0.239118 0.280991 -0.892399
v 0.000000 0.280991 -0.923879
v -0.239117 0.280991 -0.892399
v -0.461939 0.280991 -0.800103
v -0.653281 0.280991 -0.653281
v -0.800103 0.280991 -0.461940
v -0.892399 0.280991 -0.239118
v -0.923879 0.280991 -0.000000
v -0.892399 0.280991 0.239118
v -0.800103 0.280991 0.461940
v -0.653281 0.280991 0.653281
v -0.461940 0.280991 0.800103
v -0.239118 0.280991 0.892399
v -0.000000 0.280991 0.923879
v 0.239118 0.280991 0.892399
v 0.461940 0.280991 0.800103
v 0.653281 0.280991 0.653281
v 0.800103 0.280991 0.461940
v 0.892399 0.280991 0.239118
v 0.923880 0.280991 0.000000
v 0.683012 0.420339 -0.183013
v 0.612372 0.420339 -0.353553
v 0.500000 0.420339 -0.500000
v 0.353553 0.420339 -0.612372
v 0.183013 0.420339 -0.683012
v 0.000000 0.420339 -0.707106
v -0.183013 0.420339 -0.683012
v -0.353553 0.420339 -0.612372
v -0.500000 0.420339 -0.500000
v -0.612372 0.420339 -0.353553
v -0.683012 0.420339 -0.183013
v -0.707107 0.420339 -0.000000
v -0.683012 0.420339 0.183013
v -0.612372 0.420339 0.353553
v -0.500000 0.420339 0.500000
v -0.353553 0.420339 0.612372
v -0.183013 0.420339 0.683013
v -0.000000 0.420339 0.707107
v 0.183013 0.420339 0.683013
v 0.353553 0.420339 0.612372
v 0.500000 0.420339 0.500000
v 0.612372 0.420339 0.353553
v 0.683013 0.420339 0.183013
v 0.707107 0.420339 0.000000
v 0.369644 0.513449 -0.099046
v 0.331413 0.513449 -0.191342
v 0.270598 0.513449 -0.270598
v 0.191342 0.513449 -0.331413
v 0.099046 0.513449 -0.369644
v 0.000000 0.513449 -0.382683
v -0.099046 0.513449 -0.369644
v -0.191342 0.513449 -0.331413
v -0.270598 0.513449 -0.270598
v -0.331413 0.513449 -0.191342
v -0.369644 0.513449 -0.099046
v -0.382683 0.513449 -0.000000
v -0.369644 0.513449 0.099046
v -0.331414 0.513449 0.191342
v -0.270598 0.513449 0.270598
v -0.191342 0.513449 0.331414
v -0.099046 0.513449 0.369644
v -0.000000 0.513449 0.382683
v 0.099046 0.513449 0.369644
v 0.191342 0.513449 0.331414
v 0.270598 0.513449 0.270598
v 0.331414 0.513449 0.191342
v 0.369644 0.513449 0.099046
v 0.382683 0.513449 0.000000
v 0.000000 0.546144 0.000000
v -0.729569 0.355007 0.421217
v -0.813729 0.355007 0.218038
v -0.842434 0.355007 -0.000000
v -0.813729 0.355007 -0.218038
v -0.729569 0.355007 -0.421217
v -0.595691 0.355007 -0.595691
v -0.421217 0.355007 -0.729569
v -0.218038 0.355007 -0.813729
v 0.000000 0.355007 -0.842434
v 0.218038 0.355007 -0.813729
v 0.421217 0.355007 -0.729569
v 0.595691 0.355007 -0.595691
v 0.729569 0.355007 -0.421217
v 0.813729 0.355007 -0.218038
v 0.842434 0.355007 0.000000
v 0.813729 0.355007 0.218038
v 0.729570 0.355007 0.421217
v 0.595691 0.355007 0.595691
v 0.421217 0.355007 0.729570
v 0.218038 0.355007 0.813729
v -0.000000 0.355007 0.842434
v -0.218038 0.355007 0.813729
v -0.421217 0.355007 0.729569
v -0.595691 0.355007 0.595691
vt 0.365428 0.227520
vt 0.370159 0.227520
vt 0.374890 0.227520
vt 0.379622 0.227520
vt 0.384353 0.227520
vt 0.389085 0.227520
vt 0.393816 0.227520
vt 0.398547 0.227520
vt 0.403279 0.227520
vt 0.408010 0.227520
vt 0.412741 0.227520
vt 0.417473 0.227520
vt 0.422204 0.227520
vt 0.426936 0.227520
vt 0.431667 0.227520
vt 0.436398 0.227520
vt 0.441130 0.227520
vt 0.445861 0.227520
vt 0.450592 0.227520
vt 0.455324 0.227520
vt 0.460055 0.227520
vt 0.464787 0.227520
vt 0.469518 0.227520
vt 0.474249 0.227520
vt 0.478981 0.227520
vt 0.365428 0.241714
vt 0.370159 0.241714
vt 0.374890 0.241714
vt 0.379622 0.241714
vt 0.384353 0.241714
vt 0.389085 0.241714
vt 0.393816 0.241714
vt 0.398547 0.241714
vt 0.403279 0.241714
vt 0.408010 0.241714
vt 0.412741 0.241714
vt 0.417473 0.241714
vt 0.422204 0.241714
vt 0.426936 0.241714
vt 0.431667 0.241714
vt 0.436398 0.241714
vt 0.441130 0.241714
vt 0.445861 0.241714
vt 0.450592 0.241714
vt 0.455324 0.241714
vt 0.460055 0.241714
vt 0.464787 0.241714
vt 0.469518 0.241714
vt 0.474249 0.241714
vt 0.478981 0.241714
vt 0.365428 0.255908
vt 0.370159 0.255908
vt 0.374890 0.255908
vt 0.379622 0.255908
vt 0.384353 0.255908
vt 0.389085 0.255908
vt 0.393816 0.255908
vt 0.398547 0.255908
vt 0.403279 0.255908
vt 0.408010 0.255908
vt 0.412741 0.255908
vt 0.417473 0.255908
vt 0.422204 0.255908
vt 0.426936 0.255908
vt 0.431667 0.255908
vt 0.436398 0.255908
vt 0.441130 0.255908
vt 0.445861 0.255908
vt 0.450592 0.255908
vt 0.455324 0.255908
vt 0.460055 0.255908
vt 0.464787 0.255908
vt 0.469518 0.255908
vt 0.474249 0.255908
vt 0.478981 0.255908
vt 0.365428 0.270102
vt 0.370159 0.270102
vt 0.374890 0.270102
vt 0.379622 0.270102
vt 0.384353 0.270102
vt 0.389085 0.270102
vt 0.393816 0.270102
vt 0.398547 0.270102
vt 0.403279 0.270102
vt 0.408010 0.270102
vt 0.412741 0.270102
vt 0.417473 0.270102
vt 0.422204 0.270102
vt 0.426936 0.270102
vt 0.431667 0.270102
vt 0.500567 0.732985
vt 0.498097 0.732985
vt 0.499283 0.736484
vt 0.501535 0.736484
vt 0.496544 0.732985
vt 0.460055 0.270102
vt 0.464787 0.270102
vt 0.469518 0.270102
vt 0.474249 0.270102
vt 0.478981 0.270102
vt 0.365428 0.284296
vt 0.370159 0.284296
vt 0.374890 0.284296
vt 0.379622 0.284296
vt 0.384353 0.284296
vt 0.389085 0.284296
vt 0.393816 0.284296
vt 0.398547 0.284296
vt 0.403279 0.284296
vt 0.408010 0.284296
vt 0.412741 0.284296
vt 0.417473 0.284296
vt 0.422204 0.284296
vt 0.426936 0.284296
vt 0.431667 0.284296
vt 0.436398 0.284296
vt 0.441130 0.284296
vt 0.445861 0.284296
vt 0.450592 0.284296
vt 0.455324 0.284296
vt 0.460055 0.284296
vt 0.464787 0.284296
vt 0.469518 0.284296
vt 0.474249 0.284296
vt 0.478981 0.284296
vt 0.367793 0.298490
vt 0.372525 0.298490
vt 0.377256 0.298490
vt 0.381987 0.298490
vt 0.386719 0.298490
vt 0.391450 0.298490
vt 0.396182 0.298490
vt 0.400913 0.298490
vt 0.405644 0.298490
vt 0.410376 0.298490
vt 0.415107 0.298490
vt 0.419838 0.298490
vt 0.424570 0.298490
vt 0.429301 0.298490
vt 0.434033 0.298490
vt 0.438764 0.298490
vt 0.443495 0.298490
vt 0.448227 0.298490
vt 0.452958 0.298490
vt 0.457689 0.298490
vt 0.462421 0.298490
vt 0.467152 0.298490
vt 0.471884 0.298490
vt 0.476615 0.298490
vt 0.426936 0.262024
vt 0.422204 0.262024
vt 0.417473 0.262024
vt 0.412741 0.262024
vt 0.408010 0.262024
vt 0.403279 0.262024
vt 0.398547 0.262024
vt 0.393816 0.262024
vt 0.389085 0.262024
vt 0.384353 0.262024
vt 0.379622 0.262024
vt 0.374890 0.262024
vt 0.370159 0.262024
vt 0.478981 0.262024
vt 0.365428 0.262024
vt 0.474249 0.262024
vt 0.469518 0.262024
vt 0.464787 0.262024
vt 0.460055 0.262024
vt 0.497868 0.736484
vt 0.496015 0.732985
vt 0.497385 0.736484
vt 0.496544 0.732985
vt 0.497868 0.736484
vt 0.431667 0.262024
vt 0.490045 0.538461
vt 0.480769 0.538461
vt 0.482465 0.461538
vt 0.490923 0.461538
vt 0.472804 0.538461
vt 0.475201 0.461538
vt 0.466691 0.538461
vt 0.469628 0.461538
vt 0.462849 0.538461
vt 0.466124 0.461538
vt 0.461538 0.538461
vt 0.464929 0.461538
vt 0.462849 0.538461
vt 0.466124 0.461538
vt 0.466691 0.538461
vt 0.469628 0.461538
vt 0.472804 0.538461
vt 0.475201 0.461538
vt 0.480769 0.538461
vt 0.482464 0.461538
vt 0.490045 0.538461
vt 0.490923 0.461538
vt 0.500000 0.538461
vt 0.500000 0.461538
vt 0.509955 0.538461
vt 0.509077 0.461538
vt 0.519231 0.538461
vt 0.517535 0.461538
vt 0.527196 0.538461
vt 0.524799 0.461538
vt 0.498097 0.732985
vt 0.499283 0.736484
vt 0.500567 0.732985
vt 0.501535 0.736484
vt 0.503145 0.739572
vt 0.501255 0.739572
vt 0.505981 0.743974
vt 0.507004 0.743974
vt 0.500067 0.739572
vt 0.505338 0.743974
vt 0.527196 0.538461
vt 0.524799 0.461538
vt 0.519231 0.538461
vt 0.517536 0.461538
vt 0.509955 0.538461
vt 0.509077 0.461538
vt 0.500000 0.538461
vt 0.500000 0.461538
vt 0.499661 0.739572
vt 0.505118 0.743974
vt 0.500067 0.739572
vt 0.505338 0.743974
vt 0.501255 0.739572
vt 0.505981 0.743974
vt 0.503145 0.739572
vt 0.507004 0.743974
vn 0.876500 -0.420225 -0.234858
vn 0.785849 -0.420225 -0.453710
vn 0.866025 0.000000 -0.500000
vn 0.965926 0.000000 -0.258820
vn 0.641643 -0.420224 -0.641643
vn 0.707107 -0.000000 -0.707107
vn 0.453710 -0.420224 -0.785849
vn 0.500000 -0.000000 -0.866025
vn 0.234858 -0.420224 -0.876501
vn 0.258819 -0.000000 -0.965926
vn 0.000000 -0.420224 -0.907420
vn 0.000000 0.000000 -1.000000
vn -0.234857 -0.420225 -0.876501
vn -0.258819 -0.000000 -0.965926
vn -0.453710 -0.420225 -0.785849
vn -0.500000 -0.000000 -0.866026
vn -0.641643 -0.420225 -0.641643
vn -0.707107 0.000000 -0.707107
vn -0.785849 -0.420225 -0.453710
vn -0.866025 0.000000 -0.500000
vn -0.876501 -0.420225 -0.234858
vn -0.965926 -0.000000 -0.258819
vn -0.907420 -0.420224 -0.000000
vn -1.000000 0.000000 -0.000000
vn -0.876501 -0.420224 0.234857
vn -0.965926 0.000000 0.258819
vn -0.785849 -0.420224 0.453710
vn -0.866025 -0.000000 0.500000
vn -0.641643 -0.420225 0.641643
vn -0.707107 -0.000000 0.707107
vn -0.453710 -0.420225 0.785849
vn -0.500000 -0.000000 0.866025
vn -0.234858 -0.420225 0.876501
vn -0.258819 0.000000 0.965926
vn -0.000000 -0.420225 0.907420
vn 0.000000 -0.000000 1.000000
vn 0.234857 -0.420225 0.876501
vn 0.258819 0.000000 0.965926
vn 0.453710 -0.420225 0.785849
vn 0.500000 0.000000 0.866026
vn 0.641643 -0.420224 0.641643
vn 0.707107 -0.000000 0.707107
vn 0.785849 -0.420224 0.453710
vn 0.866025 0.000000 0.500000
vn 0.876501 -0.420225 0.234858
vn 0.965926 0.000000 0.258819
vn 0.907420 -0.420225 -0.000001
vn 1.000000 0.000000 -0.000001
vn 0.730471 0.537169 -0.421737
vn 0.814734 0.537169 -0.218308
vn 0.596427 0.537169 -0.596427
vn 0.421738 0.537169 -0.730471
vn 0.218308 0.537168 -0.814734
vn 0.000000 0.537169 -0.843475
vn -0.218307 0.537169 -0.814734
vn -0.421737 0.537169 -0.730471
vn -0.596427 0.537169 -0.596427
vn -0.730471 0.537169 -0.421738
vn -0.814734 0.537168 -0.218307
vn -0.843475 0.537168 -0.000000
vn -0.814734 0.537169 0.218307
vn -0.730471 0.537169 0.421737
vn -0.596427 0.537169 0.596427
vn -0.421738 0.537169 0.730471
vn -0.218307 0.537169 0.814734
vn -0.000000 0.537169 0.843475
vn 0.218307 0.537169 0.814734
vn 0.421737 0.537169 0.730471
vn 0.596427 0.537169 0.596427
vn 0.730471 0.537169 0.421738
vn 0.814734 0.537169 0.218307
vn 0.843475 0.537169 -0.000001
vn 0.482258 0.830604 -0.278432
vn 0.537889 0.830604 -0.144127
vn 0.393762 0.830604 -0.393762
vn 0.278432 0.830604 -0.482258
vn 0.144127 0.830604 -0.537889
vn 0.000000 0.830604 -0.556864
vn -0.144127 0.830604 -0.537889
vn -0.278432 0.830604 -0.482258
vn -0.393762 0.830604 -0.393762
vn -0.482258 0.830604 -0.278432
vn -0.537889 0.830604 -0.144127
vn -0.556864 0.830604 -0.000000
vn -0.537889 0.830604 0.144127
vn -0.482258 0.830604 0.278432
vn -0.393762 0.830604 0.393762
vn -0.278432 0.830604 0.482258
vn -0.144127 0.830604 0.537889
vn -0.000000 0.830604 0.556864
vn 0.144127 0.830604 0.537889
vn 0.278432 0.830604 0.482258
vn 0.393762 0.830604 0.393762
vn 0.482258 0.830604 0.278432
vn 0.537889 0.830604 0.144127
vn 0.556864 0.830604 -0.000001
vn 0.332904 0.938732 -0.089202
vn 0.298474 0.938732 -0.172324
vn 0.197767 0.973576 -0.114181
vn 0.220580 0.973576 -0.059105
vn 0.243703 0.938732 -0.243703
vn 0.161476 0.973576 -0.161476
vn 0.172324 0.938732 -0.298474
vn 0.114181 0.973576 -0.197767
vn 0.089202 0.938732 -0.332905
vn 0.059104 0.973576 -0.220581
vn 0.000000 0.938732 -0.344648
vn 0.000000 0.973576 -0.228362
vn -0.089201 0.938732 -0.332904
vn -0.059104 0.973576 -0.220581
vn -0.172324 0.938732 -0.298474
vn -0.114181 0.973576 -0.197767
vn -0.243703 0.938732 -0.243703
vn -0.161476 0.973576 -0.161476
vn -0.298474 0.938732 -0.172324
vn -0.197767 0.973576 -0.114181
vn -0.332905 0.938732 -0.089201
vn -0.220581 0.973576 -0.059105
vn -0.344648 0.938732 0.000000
vn -0.228362 0.973576 0.000000
vn -0.332905 0.938732 0.089201
vn -0.220581 0.973576 0.059104
vn -0.298474 0.938732 0.172324
vn -0.197767 0.973576 0.114181
vn -0.243703 0.938732 0.243703
vn -0.161476 0.973576 0.161476
vn -0.172324 0.938732 0.298474
vn -0.114181 0.973576 0.197767
vn -0.089202 0.938732 0.332904
vn -0.059104 0.973576 0.220580
vn -0.000000 0.938732 0.344648
vn -0.000000 0.973576 0.228362
vn 0.089201 0.938732 0.332904
vn 0.059104 0.973576 0.220581
vn 0.172324 0.938732 0.298474
vn 0.114181 0.973576 0.197767
vn 0.243703 0.938732 0.243703
vn 0.161476 0.973576 0.161476
vn 0.298474 0.938732 0.172324
vn 0.197767 0.973576 0.114181
vn 0.332904 0.938732 0.089201
vn 0.220581 0.973576 0.059104
vn 0.344648 0.938732 -0.000000
vn 0.228362 0.973576 -0.000000
vn -0.000000 1.000000 0.000000
s 1
f 1/1/1 2/2/2 26/27/3 25/26/4
f 2/2/2 3/3/5 27/28/6 26/27/3
f 3/3/5 4/4/7 28/29/8 27/28/6
f 4/4/7 5/5/9 29/30/10 28/29/8
f 5/5/9 6/6/11 30/31/12 29/30/10
f 6/6/11 7/7/13 31/32/14 30/31/12
f 7/7/13 8/8/15 32/33/16 31/32/14
f 8/8/15 9/9/17 33/34/18 32/33/16
f 9/9/17 10/10/19 34/35/20 33/34/18
f 10/10/19 11/11/21 35/36/22 34/35/20
f 11/11/21 12/12/23 36/37/24 35/36/22
f 12/12/23 13/13/25 37/38/26 36/37/24
f 13/13/25 14/14/27 38/39/28 37/38/26
f 14/14/27 15/15/29 39/40/30 38/39/28
f 15/15/29 16/16/31 40/41/32 39/40/30
f 16/16/31 17/17/33 41/42/34 40/41/32
f 17/17/33 18/18/35 42/43/36 41/42/34
f 18/18/35 19/19/37 43/44/38 42/43/36
f 19/19/37 20/20/39 44/45/40 43/44/38
f 20/20/39 21/21/41 45/46/42 44/45/40
f 21/21/41 22/22/43 46/47/44 45/46/42
f 22/22/43 23/23/45 47/48/46 46/47/44
f 23/23/45 24/24/47 48/49/48 47/48/46
f 24/24/47 1/25/1 25/50/4 48/49/48
f 25/26/4 26/27/3 50/52/49 49/51/50
f 26/27/3 27/28/6 51/53/51 50/52/49
f 27/28/6 28/29/8 52/54/52 51/53/51
f 28/29/8 29/30/10 53/55/53 52/54/52
f 29/30/10 30/31/12 54/56/54 53/55/53
f 30/31/12 31/32/14 55/57/55 54/56/54
f 31/32/14 32/33/16 56/58/56 55/57/55
f 32/33/16 33/34/18 57/59/57 56/58/56
f 33/34/18 34/35/20 58/60/58 57/59/57
f 34/35/20 35/36/22 59/61/59 58/60/58
f 35/36/22 36/37/24 60/62/60 59/61/59
f 36/37/24 37/38/26 61/63/61 60/62/60
f 37/38/26 38/39/28 62/64/62 61/63/61
f 38/39/28 39/40/30 63/65/63 62/64/62
f 39/40/30 40/41/32 64/66/64 63/65/63
f 40/41/32 41/42/34 65/67/65 64/66/64
f 41/42/34 42/43/36 66/68/66 65/67/65
f 42/43/36 43/44/38 67/69/67 66/68/66
f 43/44/38 44/45/40 68/70/68 67/69/67
f 44/45/40 45/46/42 69/71/69 68/70/68
f 45/46/42 46/47/44 70/72/70 69/71/69
f 46/47/44 47/48/46 71/73/71 70/72/70
f 47/48/46 48/49/48 72/74/72 71/73/71
f 48/49/48 25/50/4 49/75/50 72/74/72
f 49/175/50 50/176/49 134/177/73 135/178/74
f 50/176/49 51/179/51 133/180/75 134/177/73
f 51/179/51 52/181/52 132/182/76 133/180/75
f 52/181/52 53/183/53 131/184/77 132/182/76
f 53/183/53 54/185/54 130/186/78 131/184/77
f 54/185/54 55/187/55 129/188/79 130/186/78
f 55/187/55 56/189/56 128/190/80 129/188/79
f 56/189/56 57/191/57 127/192/81 128/190/80
f 57/191/57 58/193/58 126/194/82 127/192/81
f 58/193/58 59/195/59 125/196/83 126/194/82
f 59/195/59 60/197/60 124/198/84 125/196/83
f 60/197/60 61/199/61 123/200/85 124/198/84
f 61/199/61 62/201/62 122/202/86 123/200/85
f 62/201/62 63/203/63 145/204/87 122/202/86
f 63/91/63 64/92/64 144/93/88 145/94/87
f 64/92/64 65/95/65 143/169/89 144/93/88
f 65/95/65 66/170/66 142/171/90 143/169/89
f 66/170/66 67/172/67 141/173/91 142/171/90
f 67/172/67 68/205/68 140/206/92 141/173/91
f 68/205/68 69/207/69 139/208/93 140/206/92
f 69/215/69 70/217/70 138/218/94 139/216/93
f 70/217/70 71/219/71 137/220/95 138/218/94
f 71/219/71 72/221/72 136/222/96 137/220/95
f 72/221/72 49/175/50 135/178/74 136/222/96
f 73/76/97 74/77/98 98/102/99 97/101/100
f 74/77/98 75/78/101 99/103/102 98/102/99
f 75/78/101 76/79/103 100/104/104 99/103/102
f 76/79/103 77/80/105 101/105/106 100/104/104
f 77/80/105 78/81/107 102/106/108 101/105/106
f 78/81/107 79/82/109 103/107/110 102/106/108
f 79/82/109 80/83/111 104/108/112 103/107/110
f 80/83/111 81/84/113 105/109/114 104/108/112
f 81/84/113 82/85/115 106/110/116 105/109/114
f 82/85/115 83/86/117 107/111/118 106/110/116
f 83/86/117 84/87/119 108/112/120 107/111/118
f 84/87/119 85/88/121 109/113/122 108/112/120
f 85/88/121 86/89/123 110/114/124 109/113/122
f 86/89/123 87/90/125 111/115/126 110/114/124
f 87/209/125 88/210/127 112/211/128 111/212/126
f 88/210/127 89/213/129 113/214/130 112/211/128
f 89/213/129 90/223/131 114/224/132 113/214/130
f 90/223/131 91/225/133 115/226/134 114/224/132
f 91/225/133 92/227/135 116/228/136 115/226/134
f 92/227/135 93/229/137 117/230/138 116/228/136
f 93/96/137 94/97/139 118/122/140 117/121/138
f 94/97/139 95/98/141 119/123/142 118/122/140
f 95/98/141 96/99/143 120/124/144 119/123/142
f 96/99/143 73/100/97 97/125/100 120/124/144
f 97/101/100 98/102/99 121/126/145
f 98/102/99 99/103/102 121/127/145
f 99/103/102 100/104/104 121/128/145
f 100/104/104 101/105/106 121/129/145
f 101/105/106 102/106/108 121/130/145
f 102/106/108 103/107/110 121/131/145
f 103/107/110 104/108/112 121/132/145
f 104/108/112 105/109/114 121/133/145
f 105/109/114 106/110/116 121/134/145
f 106/110/116 107/111/118 121/135/145
f 107/111/118 108/112/120 121/136/145
f 108/112/120 109/113/122 121/137/145
f 109/113/122 110/114/124 121/138/145
f 110/114/124 111/115/126 121/139/145
f 111/115/126 112/116/128 121/140/145
f 112/116/128 113/117/130 121/141/145
f 113/117/130 114/118/132 121/142/145
f 114/118/132 115/119/134 121/143/145
f 115/119/134 116/120/136 121/144/145
f 116/120/136 117/121/138 121/145/145
f 117/121/138 118/122/140 121/146/145
f 118/122/140 119/123/142 121/147/145
f 119/123/142 120/124/144 121/148/145
f 120/124/144 97/125/100 121/149/145
f 123/151/85 122/150/86 86/89/123 85/88/121
f 124/152/84 123/151/85 85/88/121 84/87/119
f 125/153/83 124/152/84 84/87/119 83/86/117
f 126/154/82 125/153/83 83/86/117 82/85/115
f 127/155/81 126/154/82 82/85/115 81/84/113
f 128/156/80 127/155/81 81/84/113 80/83/111
f 129/157/79 128/156/80 80/83/111 79/82/109
f 130/158/78 129/157/79 79/82/109 78/81/107
f 131/159/77 130/158/78 78/81/107 77/80/105
f 132/160/76 131/159/77 77/80/105 76/79/103
f 133/161/75 132/160/76 76/79/103 75/78/101
f 134/162/73 133/161/75 75/78/101 74/77/98
f 135/164/74 134/162/73 74/77/98 73/76/97
f 136/165/96 135/163/74 73/100/97 96/99/143
f 137/166/95 136/165/96 96/99/143 95/98/141
f 138/167/94 137/166/95 95/98/141 94/97/139
f 139/168/93 138/167/94 94/97/139 93/96/137
f 140/206/92 139/208/93 93/229/137 92/227/135
f 141/173/91 140/206/92 92/227/135 91/225/133
f 142/171/90 141/173/91 91/225/133 90/223/131
f 143/169/89 142/171/90 90/223/131 89/213/129
f 144/93/88 143/169/89 89/213/129 88/210/127
f 145/94/87 144/93/88 88/210/127 87/209/125
f 122/150/86 145/174/87 87/90/125 86/89/123
